<svg xmlns="http://www.w3.org/2000/svg" width="500" height="500" viewBox="0 0 500 500"><path fill="#00c4cc" d="M59.605 161.287c3.215 2.718 6.838 5.865 10.608 2.024 5.797-5.227.853-16.313 6.388-21.452 7.943-7.376 16.29-3.157 22.76 2.522 1.076-.409 2.41-.865 3.53-1.115a20.2 20.2 0 0 1 15.275 2.748c2.15 1.372 6.263 4.964 6.977 7.713.16.615-1.244 2.385-1.749 2.881-2.183 2.147-2.215 5.382-3.258 8.14-.328.866-1.157 2.089-1.71 2.926-.041 1.044-.027 2.19-.036 3.244-6.92 4.928-4.864 14.029-14.253 4.126-1.288 1.814-2.256 3.53-3.298 5.487 1.372 2.271 3.964 6.433 4.696 8.915 1.01 3.422-.02 3.884 2.09 7.398 11.494 1.367 25.01 2.633 36.477 3.556.24-3.988.31-9.464 1.788-13.237.35-.658 1.216-1.135 1.908-1.24 8.19-1.25 3.226 9.73 4.008 14.937l.222.072c1.08-2.353 1.331-6.774 1.601-9.468 2.129-.09 4.92-.454 6.288 1.43.6 2.874-2.092 22.273-3.108 25.569-1.846.208-4.118.079-6.008.03.25-1.46.88-7.4.686-8.644-2.551.995-.559 8.72-2.737 11.396-5.638 2.766-6.421-1.737-6.25-6.271.112-2.967.18-6.103.752-9.023l-34.037-3.955c1.385 7.511 1.947 8.81-1.058 16.014 5.646 3.689 11.311 7.35 17.287 10.488 2.18 1.144 4.364 2.283 6.508 3.493 2.095-4.043 2.965-8.286 4.802-12.388.533-1.19 2.149-1.576 3.3-1.152 5.646 2.075-1.765 12.008-.68 14.52l.527.193c2.687-.929 1.442-5.844 3.579-7.644.74-.623 1.759-.845 2.705-.702.84.128 1.678.582 2.123 1.327 1.24 2.08-3.038 13.635-3.874 16.186-.674 2.054-2.206 8.68-4.162 9.567-.971.44-2.785.658-3.763.155-3.324-1.712 1.235-7.28.382-9.776l-.493-.075c-1.23.697-4.342 10.826-5.253 12.917-1.614-.055-3.714.155-4.635-1.323-.22-2.852 2.982-12.46 3.99-15.792-4.253-1.297-9.395-3.271-13.65-4.77-8.127-2.861-17.459-6.197-25.127-10.106-.453-2.005-2.725-12.695-3.217-13.85-.5 1.102 1.377 12.47 1.733 14.68 3.116 2.016 8.829 4.216 12.457 5.721-2.467 4.506-6.327 10.149-9.178 14.552a515 515 0 0 1 28.187 48.266c-.23 4.418-1.792 10.677-2.302 15.44-1.264 11.812-1.91 23.332-2.64 35.157.904-.03 1.97-.145 2.697.328-.255 2.32-.49 4.289-.895 6.6 1.77 1.08 7.837 4.621 9.502 5.138 1.803 1.003 3.888 2.24 5.77 3.008 6.537 5.493-2.86 7.24-6.916 7.222-2.732-.012-5.608.316-8.362.17-1.284-.069-.612-1.163-1.245-1.985-.265.628-.317.89-.492 1.538l-.486.44c-2.406.17-9.077-.103-11.04-.158-.498-2.609-1.454-13.32-.117-15.3.854-.52 1.468-.451 2.507-.526 0-7.803.136-18.902-1.91-26.289-3.164-11.427-6.364-12.274-.694-23.923-8.332-4.854-16.282-10.982-23.609-17.24-1.357 5.995-11.075 31.644-14.49 36.624-1.944 2.834-5.392 4.36-7.544 7.064-7.52 9.44-14.805 21.24-20.685 31.823 1.187.587 1.493.608 1.695 1.952-.339 1.12-1.362 2.043-2.182 2.95.071 8.995 3.81 9.23 7.567 16.046l.168.311c-2.536 13.61-24.037-9.753-28.317-13.033 1.698-3.51 4.995-7.966 7.4-11.083l2.699.716c.287-1.08.6-2.07.939-3.13l2.448-1.259c1.157-2.055 2.572-6.114 3.382-8.417a666 666 0 0 0 5.501-16.878c2.899-9.072 3.54-12.66 13.407-15.66.013-14.48 1.815-29.8 2.432-44.31.195-4.608-.987-9.308-.5-14.244.666-6.78 2.257-9.343 7.336-13.655-1.923-1.118-3.626-1.898-5.567-3.16 10.073-10.17 13.31-15.846 15.413-30.313.461-3.176 1.873-9.801 3.13-12.537 2.352-5.12 8.975-13.326 12.823-17.385q2.48.06 4.957.226c.762-.948 1.748-2.405 2.48-3.425-4.913-6.158-5.909-11.881-2.905-19.494.53-1.342 2.031-2.807 2.097-3.87l-.495-.368c-4.471.364-5.728 13.181-7.929 16.744-8.742 14.155-20.23 9.953-27.128-3.065m50.019 188.637 2.74-.434c4.856-.523 3.762-1.633 3.99-5.963l-2.985.091-3.753.15q.021 3.078.008 6.156m-5.257-133.757c-.906-4.833-5.884-21.673-9.432-24.312 3.526 7.497 5.182 15.23 8.196 22.884.249.633.682 1.055 1.236 1.428M29.338 356.8c1.863 1.356 4.362 3.834 6.615 2.846.59-.48 1.192-.94 1.726-1.482a26.4 26.4 0 0 1-6.814-4.043z"/><path fill="#fcfefe" fill-opacity=".008" d="M94.935 191.855c3.548 2.639 8.526 19.479 9.432 24.312-.554-.373-.987-.795-1.236-1.428-3.014-7.654-4.67-15.387-8.196-22.884"/><path fill="#00c4cc" d="m290.635 272.745 5.363-.018-32.718 45.323c-5.906 8.174-13.282 17.692-18.7 25.884l-46.204-21.549a2109 2109 0 0 0-32.081 37.914c-7.703 9.153-16.468 19.113-23.861 28.414-7.995-5.512-16.335-10.713-24.416-16.259-18.192 10.694-36.877 20.702-55.176 31.48l-1.88 1.027a116 116 0 0 1-2.543-3.758c4.425-2.646 9.696-5.345 14.298-7.974l45.083-25.736c2.786 1.344 8.59 5.387 11.335 7.251 3.849 2.613 8.652 5.486 12.333 8.18a4939 4939 0 0 0 35-41.627c6.433-7.715 13.914-17.01 20.611-24.373 3.955 1.15 8.624 3.973 12.43 5.719 11.234 5.154 22.365 10.819 33.693 15.75l34.238-47.435c3.11-4.272 9.9-14.724 13.195-18.213"/><path fill="#ee772a" d="M438.637 127.77c1.775.092 5.277-.556 7.152-.865.108.33.288.679.033 1.04-2.99 4.216-7.389 9.362-10.657 13.218L400.42 181.51c-9.998 11.749-19.663 23.788-29.847 35.385-1.075 1.224-2.173 2.616-3.306 3.77l-54.214-32.822c-4.458 9.214-9.848 18.178-14.734 27.186-.885 1.63-1.844 3.37-2.8 4.953l-6.458-.236a595 595 0 0 1 13.208-24.544c2.723-4.883 5.615-10.373 8.53-15.098l55.21 32.908c15.401-18.811 31.686-37.246 47.423-55.797l16.79-19.839c1.894-2.224 6.38-7.73 8.415-9.607"/><path fill="#ee772a" d="m257.103 273.882 6.527.068c-4.337 8.933-10.793 18.238-15.582 27.047-1.501 2.762-3.634 6.044-4.938 8.829a1448 1448 0 0 0-28.073-11.562c-5.857-2.34-12.627-4.84-18.33-7.318-3.509 4.308-9.16 9.965-13.12 14.157l-21.123 22.453a1720 1720 0 0 0-16.8 18.048c-3.675 4.006-7.944 8.842-11.828 12.564-1.881-.769-3.966-2.005-5.77-3.008a3865 3865 0 0 0 44.038-46.839c6.994-7.48 15.898-17.27 23.228-24.242a976 976 0 0 1 29.601 11.838c4.81 1.982 10.894 4.316 15.513 6.498 5.36-9.356 11.551-19.286 16.657-28.533"/><path fill="#00c4cc" d="M438.637 127.77c-2.457-.987-4.82-1.93-7.266-3.057-3.222-1.483-7.071-4.438-4.872-8.394 1.164-2.093 3.721-3.042 5.832-3.977 4.155-1.84 8.334-3.66 12.49-5.517l14.609-6.571c3.616-1.625 7.229-3.417 11.039-4.475 1.417.452 2.865 1 3.735 2.282 1.135 1.671 7.946 43.872 7.382 45.366-.367.97-1.354 2.262-2.349 2.65-3.225 1.253-13.983-4.756-17.26-6.536-2.012 3.216-4.902 6.913-7.228 9.998q-5.64 7.431-11.182 14.934a6181 6181 0 0 1-40.315 54.883c-1.832.12-3.943.09-5.802.104 4.892-5.53 12.42-16.58 17.007-22.887l28.594-38.892c5.022-6.847 12.073-17.038 17.343-23.356 3.69 1.003 13.28 5.866 17.125 7.694-1.357-5.443-2.01-11.234-3.063-16.751-1.557-8.158-2.399-16.618-4.03-24.739-7.704 2.858-16.412 7.294-24.078 10.64-4.477 1.956-12.588 5.25-16.513 7.525 5.13 2.911 10.659 5.626 15.954 8.21-1.875.31-5.377.958-7.152.866"/><path fill="#ee772a" d="M215.441 232.984c4.487-.376 8.99.08 12.949 2.37a13.9 13.9 0 0 1 6.546 8.52c2.8 10.51-4.377 16.646-13.655 18.976-4.97.532-10.486-.475-14.591-3.441a14.2 14.2 0 0 1-5.747-9.52c-1.307-9.429 5.852-15.583 14.498-16.905m3.932 23.722a8.885 8.885 0 1 0-2.389-17.608 8.885 8.885 0 0 0 2.389 17.608"/><path fill="#ee772a" d="M170.37 233.088c9.976.39 29.886-3.534 27.58 13.404-.457 3.36-3.544 5.528-6.167 7.257 1.254 1.454 6.534 7.276 6.255 8.869l-.712.143-7.278-.047c-2.21-2.496-4.395-5.085-6.319-7.808l-5.042-.031.05 7.906-8.338-.03c.12-9.784.002-19.861-.03-29.663m8.094 15.712c3.86.046 7.014.543 10.291-1.565 6.11-7.42-5.805-8.036-10.293-7.991q.028 4.777.002 9.556"/><path fill="#00c4cc" d="M301.297 233.099c9.237.482 30.738-3.535 27.143 13.767-.657 3.158-3.763 4.984-6.447 6.323q.428.441.835.902c1.15 1.323 6.045 7.094 5.963 8.488l-.605.113-7.38-.005c-1.8-2.895-3.81-5.578-5.836-8.316l-5.628.018.014 8.31a195 195 0 0 0-7.82-.03c-.033-9.752.054-19.855-.24-29.57m8.17 15.704c3.545-.007 6.446.287 9.684-1.355.99-.926 1.809-2.004 1.786-3.43-.095-5.974-7.551-5.089-11.577-4.927q.171 4.854.108 9.712"/><path fill="#ee772a" d="M260.663 233.1c2.542.085 5.31.019 7.87.007q-.122 13.972-.102 27.945c-.033 1.092.145.833-.448 1.436-1.546.434-3.63.218-5.329.196-4.51-4.268-10.569-11.508-14.752-16.34-.092 5.455-.06 11.044-.08 16.507-2.39-.195-5.4-.094-7.843-.077l.008-29.691c1.88.104 4.295.048 6.216.058 1.292 1.24 3.586 4.01 4.849 5.45q4.908 5.523 9.622 11.215c-.417-4.008.016-12.197-.01-16.707"/><path fill="#00c4cc" d="M343.48 232.94c2.673.115 5.211-.038 7.913.157l13.435 29.522c-2.177-.187-5.672-.144-7.957-.177l-2.894-6.554c-.881.175-2.031.153-2.95.173l-10.702.041a93 93 0 0 1-2.773 6.513c-2.505.131-5.376.06-7.91.054 4.47-10.071 9.128-19.77 13.838-29.729m-.695 17.878q2.466-.086 4.932-.074h3.87c-.715-1.676-3.456-8.503-4.365-9.384a156 156 0 0 0-4.437 9.458"/><path fill="#00c4cc" d="m426.428 233.106.027.24c-.988 1.508-3.628 4.154-4.927 5.588-2.318 2.559-4.642 5.211-6.998 7.719 4.135 5.268 9.087 10.7 12.954 16.037l-9.027-.03c-2.993-3.434-6.41-7.411-9.125-11.038-1.53 1.411-2.275 2.107-3.56 3.716l-.003 5.953c.01.476-.03.606-.098 1.08-1.033.62-6.094.332-7.741.316.143-3.3.028-7.397.029-10.765q.03-9.383-.036-18.767l7.977-.052c-.228 3.768-.018 9.485-.01 13.36 3.807-3.866 8.556-9.96 12.552-13.346a468 468 0 0 1 7.986-.011"/><path fill="#00c4cc" d="M379.546 232.733c5.783-.605 10.424.937 14.727 4.803-1.836 1.46-2.886 2.6-4.41 4.364-1.688-1.188-3.343-2.226-5.383-2.723-2.558-.623-5.32-.271-7.57 1.128-2.155 1.34-3.764 3.623-4.235 6.125-.43 2.28.048 4.676 1.435 6.553.869 1.177 2.03 2.08 3.317 2.762 6.285 3.333 10.003-2.144 12.643-1.705a145 145 0 0 1 4.368 4.04c-6.573 5.487-15.573 7.074-23.022 2.257a14.4 14.4 0 0 1-6.347-9.3c-2.177-10.62 4.797-16.654 14.477-18.304"/><path fill="#00c4cc" d="m270.923 233.126 27.384.023-.007 5.866a329 329 0 0 0-9.696.003c.168 4.69.057 9.743.034 14.46l-.024 9.193c-2.162-.223-5.685-.24-7.852-.038.083-7.833.017-15.764-.002-23.6-3.223-.049-6.53-.014-9.76-.016z"/><path fill="#ee772a" d="M155.986 233.121c2.633.078 5.416.02 8.06.007-.006 2.6.13 28.437-.28 29.587l-7.957-.008c.172-3.621.05-8.087.056-11.765z"/></svg>